<svg xmlns="http://www.w3.org/2000/svg" xmlns:xlink="http://www.w3.org/1999/xlink" width="1490" height="218" viewBox="0 0 1490 218">
    <defs>
        <filter id="sro60jzpda" width="120%" height="158.9%" x="-10%" y="-27.6%" filterUnits="objectBoundingBox">
            <feOffset dy="2" in="SourceAlpha" result="shadowOffsetOuter1"/>
            <feGaussianBlur in="shadowOffsetOuter1" result="shadowBlurOuter1" stdDeviation="10.5"/>
            <feColorMatrix in="shadowBlurOuter1" values="0 0 0 0 0 0 0 0 0 0 0 0 0 0 0 0 0 0 0.1 0"/>
        </filter>
        <filter id="1uohueg76c" width="120%" height="158.9%" x="-10%" y="-27.6%" filterUnits="objectBoundingBox">
            <feOffset dy="2" in="SourceAlpha" result="shadowOffsetOuter1"/>
            <feGaussianBlur in="shadowOffsetOuter1" result="shadowBlurOuter1" stdDeviation="10.5"/>
            <feColorMatrix in="shadowBlurOuter1" values="0 0 0 0 0 0 0 0 0 0 0 0 0 0 0 0 0 0 0.1 0"/>
        </filter>
        <filter id="bdew50dr5e" width="120%" height="158.9%" x="-10%" y="-27.6%" filterUnits="objectBoundingBox">
            <feOffset dy="2" in="SourceAlpha" result="shadowOffsetOuter1"/>
            <feGaussianBlur in="shadowOffsetOuter1" result="shadowBlurOuter1" stdDeviation="10.5"/>
            <feColorMatrix in="shadowBlurOuter1" values="0 0 0 0 0 0 0 0 0 0 0 0 0 0 0 0 0 0 0.1 0"/>
        </filter>
        <filter id="hu0g47279g" width="106.2%" height="185.6%" x="-3.1%" y="-56.2%" filterUnits="objectBoundingBox">
            <feOffset dy="-14" in="SourceAlpha" result="shadowOffsetOuter1"/>
            <feGaussianBlur in="shadowOffsetOuter1" result="shadowBlurOuter1" stdDeviation="12.5"/>
            <feColorMatrix in="shadowBlurOuter1" values="0 0 0 0 0 0 0 0 0 0 0 0 0 0 0 0 0 0 0.0479403409 0"/>
        </filter>
        <path id="4lqkv5womb" d="M10.24 0h304.32c5.655 0 10.24 4.585 10.24 10.24V110.4H0V10.24C0 4.585 4.585 0 10.24 0z"/>
        <path id="6gb8s0518d" d="M10.24 0h304.32c5.655 0 10.24 4.585 10.24 10.24V110.4H0V10.24C0 4.585 4.585 0 10.24 0z"/>
        <path id="nbq4r1fe4f" d="M10.24 0h304.32c5.655 0 10.24 4.585 10.24 10.24V110.4H0V10.24C0 4.585 4.585 0 10.24 0z"/>
        <path id="qrclu2pvwh" d="M0 84H1440V188H0z"/>
    </defs>
    <g fill="none" fill-rule="evenodd">
        <g fill-rule="nonzero">
            <g>
                <g>
                    <g>
                        <g transform="translate(25 -4913) translate(0 4445) translate(0 487) translate(122)">
                            <use fill="#000" filter="url(#sro60jzpda)" xlink:href="#4lqkv5womb"/>
                            <use fill="#FFFEFA" xlink:href="#4lqkv5womb"/>
                        </g>
                        <path fill="#4BB4E6" d="M10.24 0h304.32c5.655 0 10.24 4.585 10.24 10.24v56.533H0V10.24C0 4.585 4.585 0 10.24 0z" transform="translate(25 -4913) translate(0 4445) translate(0 487) translate(122)"/>
                        <g fill="#FFF">
                            <path d="M13.69 9.942L7.064 7.298l-.114-.043c-2.01-.69-3.787 1.609-2.556 3.405l4.04 5.896-6.188 3.553-.112.069c-1.78 1.15-1.097 3.97 1.065 4.124l7.11.504-1.092 7.074-.016.123c-.222 2.12 2.405 3.346 3.874 1.742l4.826-5.268 4.826 5.268.086.09c1.513 1.496 4.105.198 3.773-1.955l-1.093-7.074 7.11-.504.131-.013c2.102-.26 2.704-3.1.823-4.18l-6.189-3.553 4.04-5.896.067-.102c1.118-1.814-.719-4.066-2.736-3.26l-6.625 2.644-2.071-6.85c-.643-2.125-3.64-2.125-4.283 0l-2.072 6.85z" transform="translate(25 -4913) translate(0 4445) translate(0 487) translate(122) translate(20.46 15.41)"/>
                        </g>
                    </g>
                    <g>
                        <g transform="translate(25 -4913) translate(0 4445) translate(0 487) translate(558)">
                            <use fill="#000" filter="url(#1uohueg76c)" xlink:href="#6gb8s0518d"/>
                            <use fill="#FFFEFA" xlink:href="#6gb8s0518d"/>
                        </g>
                        <path fill="#FFD200" d="M10.24 0h304.32c5.655 0 10.24 4.585 10.24 10.24v56.533H0V10.24C0 4.585 4.585 0 10.24 0z" transform="translate(25 -4913) translate(0 4445) translate(0 487) translate(558)"/>
                        <g fill="#FFF">
                            <path d="M17.902 34.457c9.064 0 16.41-7.378 16.41-16.48 0-9.1-7.346-16.479-16.41-16.479-9.063 0-16.41 7.378-16.41 16.48 0 9.1 7.347 16.479 16.41 16.479z" transform="translate(25 -4913) translate(0 4445) translate(0 487) translate(558) translate(20.46 15.41)"/>
                        </g>
                    </g>
                    <g>
                        <g transform="translate(25 -4913) translate(0 4445) translate(0 487) translate(994)">
                            <use fill="#000" filter="url(#bdew50dr5e)" xlink:href="#nbq4r1fe4f"/>
                            <use fill="#FFFEFA" xlink:href="#nbq4r1fe4f"/>
                        </g>
                        <path fill="#50BE87" d="M10.24 0h304.32c5.655 0 10.24 4.585 10.24 10.24v56.533H0V10.24C0 4.585 4.585 0 10.24 0z" transform="translate(25 -4913) translate(0 4445) translate(0 487) translate(994)"/>
                        <g fill="#FFF">
                            <path d="M32.821 32.207c-.002-1.606-.854-3.087-2.238-3.89L20.134 17.08c-1.379-.8-3.085-.8-4.47.003L5.228 28.314c-1.389.806-2.242 2.287-2.243 3.891v1.44l29.837.063v-1.501zM2.984 3.748c.001 1.606.854 3.087 2.238 3.89L15.67 18.875c1.38.8 3.085.8 4.47-.003L30.577 7.64c1.39-.805 2.242-2.286 2.244-3.89V2.308L2.984 2.247v1.501z" transform="translate(25 -4913) translate(0 4445) translate(0 487) translate(994) translate(20.46 15.41)"/>
                        </g>
                    </g>
                    <g transform="translate(25 -4913) translate(0 4445) translate(0 487)">
                        <use fill="#000" filter="url(#hu0g47279g)" xlink:href="#qrclu2pvwh"/>
                        <use fill="#FFF" xlink:href="#qrclu2pvwh"/>
                    </g>
                </g>
            </g>
        </g>
    </g>
</svg>
