<svg xmlns="http://www.w3.org/2000/svg" width="19" height="22" viewBox="0 0 19 22">
    <g fill="none" fill-rule="evenodd">
        <g fill="#50BE87" fill-rule="nonzero">
            <g>
                <g>
                    <g>
                        <g>
                            <g>
                                <path d="M19.44 39.584c-1.658 1.362-3.362 1.818-5.04 1.818-1.736 0-3.445-.482-5.047-.934-2.559-.722-4.781-1.33-6.629.005v7.865c0 .478-.338.858-.81.858-.473 0-.916-.38-.916-.858V30.207c0-.313.196-.428.46-.476 2.561-2.084 5.506-1.264 8.355-.46 3.048.861 5.925 1.673 8.646-.633.063-.052.134-.08.204-.111.02-.013.04-.024.06-.034.038-.013.075-.02.114-.027.056-.015.107-.041.172-.041.024 0 .048.013.073.015l.014.004c.445.049.896.45.896.9v9.497c0 .328-.248.6-.553.743z" transform="translate(-964 -4079) translate(-237 3549) translate(1176 268) translate(24 16) translate(0 8) translate(0 209.9)"/>
                            </g>
                        </g>
                    </g>
                </g>
            </g>
        </g>
    </g>
</svg>
