<svg xmlns="http://www.w3.org/2000/svg" width="606" height="98" viewBox="0 0 606 98">
    <g fill="none" fill-rule="evenodd">
        <g>
            <g>
                <g>
                    <path fill="#FFF" fill-rule="nonzero" d="M17.68 97.179c5.28 0 9.52-1.253 12.72-3.76 3.2-2.507 4.8-5.867 4.8-10.08 0-1.44-.187-2.773-.56-4-.373-1.227-.813-2.253-1.32-3.08-.507-.827-1.253-1.573-2.24-2.24-.987-.667-1.853-1.187-2.6-1.56-.747-.373-1.787-.733-3.12-1.08-1.333-.347-2.36-.587-3.08-.72l-3.24-.6c-1.12-.16-1.973-.293-2.56-.4-.587-.107-1.333-.267-2.24-.48-.907-.213-1.587-.44-2.04-.68-.453-.24-.933-.547-1.44-.92-.507-.373-.867-.8-1.08-1.28-.213-.48-.32-1.04-.32-1.68 0-1.547.72-2.8 2.16-3.76 1.44-.96 3.387-1.44 5.84-1.44 2.613 0 4.667.547 6.16 1.64 1.493 1.093 2.267 2.653 2.32 4.68h8.4c-.053-4.213-1.6-7.573-4.64-10.08-3.04-2.507-7.067-3.76-12.08-3.76s-9.053 1.2-12.12 3.6c-3.067 2.4-4.6 5.547-4.6 9.44 0 1.387.173 2.653.52 3.8.347 1.147.773 2.12 1.28 2.92.507.8 1.213 1.52 2.12 2.16.907.64 1.747 1.16 2.52 1.56.773.4 1.773.773 3 1.12 1.227.347 2.24.6 3.04.76.8.16 1.867.347 3.2.56 1.28.213 2.307.4 3.08.56.773.16 1.653.4 2.64.72.987.32 1.747.667 2.28 1.04.533.373.987.867 1.36 1.48.373.613.56 1.32.56 2.12 0 1.173-.373 2.187-1.12 3.04-.747.853-1.747 1.493-3 1.92-1.253.427-2.68.64-4.28.64-2.72 0-4.92-.6-6.6-1.8-1.68-1.2-2.573-2.893-2.68-5.08H0c.107 4.48 1.76 8.053 4.96 10.72s7.44 4 12.72 4zm48.08 0c4.8 0 9.067-1.293 12.8-3.88 3.733-2.587 6.453-6.173 8.16-10.76h-9.36c-.747 1.333-1.693 2.467-2.84 3.4-1.147.933-2.467 1.653-3.96 2.16-1.493.507-3.093.76-4.8.76-3.52 0-6.467-1.013-8.84-3.04s-3.827-4.773-4.36-8.24H87.6c.107-1.173.16-2.16.16-2.96 0-4.16-.907-7.96-2.72-11.4-1.813-3.44-4.4-6.187-7.76-8.24-3.36-2.053-7.2-3.08-11.52-3.08-6.347 0-11.64 2.16-15.88 6.48s-6.36 9.707-6.36 16.16c0 6.453 2.12 11.84 6.36 16.16s9.533 6.48 15.88 6.48zm13.12-26.8H52.72c.747-3.253 2.28-5.813 4.6-7.68s5.133-2.8 8.44-2.8c2.187 0 4.173.413 5.96 1.24s3.293 2.027 4.52 3.6c1.227 1.573 2.107 3.453 2.64 5.64zm29.2 25.76v-23.04c0-8 3.68-12 11.04-12h4.64v-8.4h-3.84c-5.707 0-10.107 2.053-13.2 6.16l-1.52-5.92h-6v43.2h8.88zm45.6 0l17.76-43.2h-9.12l-12.72 32.08-12.96-32.08h-9.36l18.24 43.2h8.16zm36.24-49.92v-9.12h-9.2v9.12h9.2zm-.16 49.92v-43.2h-8.88v43.2h8.88zm34.08 1.04c5.333 0 9.96-1.533 13.88-4.6 3.92-3.067 6.493-7.133 7.72-12.2h-8.96c-1.173 2.667-2.867 4.72-5.08 6.16-2.213 1.44-4.733 2.16-7.56 2.16-3.84 0-7.067-1.36-9.68-4.08-2.613-2.72-3.92-6.08-3.92-10.08 0-2.667.6-5.08 1.8-7.24 1.2-2.16 2.84-3.853 4.92-5.08 2.08-1.227 4.373-1.84 6.88-1.84 2.827 0 5.36.707 7.6 2.12 2.24 1.413 3.92 3.347 5.04 5.8h8.8c-1.173-4.96-3.707-8.933-7.6-11.92s-8.48-4.48-13.76-4.48c-6.453 0-11.853 2.16-16.2 6.48-4.347 4.32-6.52 9.693-6.52 16.12 0 6.427 2.173 11.813 6.52 16.16 4.347 4.347 9.72 6.52 16.12 6.52zm51.36 0c4.8 0 9.067-1.293 12.8-3.88 3.733-2.587 6.453-6.173 8.16-10.76h-9.36c-.747 1.333-1.693 2.467-2.84 3.4-1.147.933-2.467 1.653-3.96 2.16-1.493.507-3.093.76-4.8.76-3.52 0-6.467-1.013-8.84-3.04s-3.827-4.773-4.36-8.24h35.04c.107-1.173.16-2.16.16-2.96 0-4.16-.907-7.96-2.72-11.4-1.813-3.44-4.4-6.187-7.76-8.24-3.36-2.053-7.2-3.08-11.52-3.08-6.347 0-11.64 2.16-15.88 6.48s-6.36 9.707-6.36 16.16c0 6.453 2.12 11.84 6.36 16.16s9.533 6.48 15.88 6.48zm13.12-26.8h-26.16c.747-3.253 2.28-5.813 4.6-7.68s5.133-2.8 8.44-2.8c2.187 0 4.173.413 5.96 1.24s3.293 2.027 4.52 3.6c1.227 1.573 2.107 3.453 2.64 5.64zm34.72 26.8c5.28 0 9.52-1.253 12.72-3.76 3.2-2.507 4.8-5.867 4.8-10.08 0-1.44-.187-2.773-.56-4-.373-1.227-.813-2.253-1.32-3.08-.507-.827-1.253-1.573-2.24-2.24-.987-.667-1.853-1.187-2.6-1.56-.747-.373-1.787-.733-3.12-1.08-1.333-.347-2.36-.587-3.08-.72l-3.24-.6c-1.12-.16-1.973-.293-2.56-.4-.587-.107-1.333-.267-2.24-.48-.907-.213-1.587-.44-2.04-.68-.453-.24-.933-.547-1.44-.92-.507-.373-.867-.8-1.08-1.28-.213-.48-.32-1.04-.32-1.68 0-1.547.72-2.8 2.16-3.76 1.44-.96 3.387-1.44 5.84-1.44 2.613 0 4.667.547 6.16 1.64 1.493 1.093 2.267 2.653 2.32 4.68h8.4c-.053-4.213-1.6-7.573-4.64-10.08-3.04-2.507-7.067-3.76-12.08-3.76s-9.053 1.2-12.12 3.6c-3.067 2.4-4.6 5.547-4.6 9.44 0 1.387.173 2.653.52 3.8.347 1.147.773 2.12 1.28 2.92.507.8 1.213 1.52 2.12 2.16.907.64 1.747 1.16 2.52 1.56.773.4 1.773.773 3 1.12 1.227.347 2.24.6 3.04.76.8.16 1.867.347 3.2.56 1.024.17 1.886.324 2.586.46l.494.1c.773.16 1.653.4 2.64.72.987.32 1.747.667 2.28 1.04.533.373.987.867 1.36 1.48.373.613.56 1.32.56 2.12 0 1.173-.373 2.187-1.12 3.04-.747.853-1.747 1.493-3 1.92-1.253.427-2.68.64-4.28.64-2.72 0-4.92-.6-6.6-1.8-1.68-1.2-2.573-2.893-2.68-5.08h-8.72c.107 4.48 1.76 8.053 4.96 10.72s7.44 4 12.72 4zm70.64 0c5.333 0 9.96-1.533 13.88-4.6 3.92-3.067 6.493-7.133 7.72-12.2h-8.96c-1.173 2.667-2.867 4.72-5.08 6.16-2.213 1.44-4.733 2.16-7.56 2.16-3.84 0-7.067-1.36-9.68-4.08-2.613-2.72-3.92-6.08-3.92-10.08 0-2.667.6-5.08 1.8-7.24 1.2-2.16 2.84-3.853 4.92-5.08 2.08-1.227 4.373-1.84 6.88-1.84 2.827 0 5.36.707 7.6 2.12 2.24 1.413 3.92 3.347 5.04 5.8h8.8c-1.173-4.96-3.707-8.933-7.6-11.92s-8.48-4.48-13.76-4.48c-6.453 0-11.853 2.16-16.2 6.48-4.347 4.32-6.52 9.693-6.52 16.12 0 6.427 2.173 11.813 6.52 16.16 4.347 4.347 9.72 6.52 16.12 6.52zm51.68 0c6.24 0 11.44-2.107 15.6-6.32l.88 5.28h7.2v-43.2h-6.88l-1.04 5.36c-4.16-4.267-9.413-6.4-15.76-6.4-6.453 0-11.827 2.147-16.12 6.44-4.293 4.293-6.44 9.68-6.44 16.16s2.147 11.88 6.44 16.2c4.293 4.32 9.667 6.48 16.12 6.48zm.68-8.48c-4.08 0-7.467-1.347-10.16-4.04-2.693-2.693-4.04-6.067-4.04-10.12 0-2.667.613-5.08 1.84-7.24s2.92-3.853 5.08-5.08c2.16-1.227 4.573-1.84 7.24-1.84 4.107 0 7.48 1.333 10.12 4 2.64 2.667 3.96 6.04 3.96 10.12 0 4.08-1.32 7.467-3.96 10.16-2.64 2.693-6 4.04-10.08 4.04zm46.52 7.44v-23.04c0-8 3.68-12 11.04-12h4.64v-8.4h-3.84c-5.707 0-10.107 2.053-13.2 6.16l-1.52-5.92h-6v43.2h8.88zm42.72 1.04c6.027 0 11.12-1.973 15.28-5.92l1.12 4.88h6.72v-58.72h-8.88v19.52c-4-3.36-8.747-5.04-14.24-5.04-6.507 0-11.88 2.147-16.12 6.44-4.24 4.293-6.36 9.693-6.36 16.2s2.12 11.907 6.36 16.2c4.24 4.293 9.613 6.44 16.12 6.44zm.72-8.48c-4.053 0-7.413-1.347-10.08-4.04s-4-6.067-4-10.12c0-2.667.6-5.08 1.8-7.24 1.2-2.16 2.88-3.853 5.04-5.08 2.16-1.227 4.573-1.84 7.24-1.84s5.08.613 7.24 1.84 3.853 2.92 5.08 5.08c1.227 2.16 1.84 4.573 1.84 7.24 0 4.053-1.347 7.427-4.04 10.12-2.693 2.693-6.067 4.04-10.12 4.04zm51.44 8.48c5.28 0 9.52-1.253 12.72-3.76 3.2-2.507 4.8-5.867 4.8-10.08 0-1.44-.187-2.773-.56-4-.373-1.227-.813-2.253-1.32-3.08-.507-.827-1.253-1.573-2.24-2.24-.987-.667-1.853-1.187-2.6-1.56-.747-.373-1.787-.733-3.12-1.08-1.333-.347-2.36-.587-3.08-.72l-3.24-.6c-1.12-.16-1.973-.293-2.56-.4-.587-.107-1.333-.267-2.24-.48-.907-.213-1.587-.44-2.04-.68-.453-.24-.933-.547-1.44-.92-.507-.373-.867-.8-1.08-1.28-.213-.48-.32-1.04-.32-1.68 0-1.547.72-2.8 2.16-3.76 1.44-.96 3.387-1.44 5.84-1.44 2.613 0 4.667.547 6.16 1.64 1.493 1.093 2.267 2.653 2.32 4.68h8.4c-.053-4.213-1.6-7.573-4.64-10.08-3.04-2.507-7.067-3.76-12.08-3.76s-9.053 1.2-12.12 3.6c-3.067 2.4-4.6 5.547-4.6 9.44 0 1.387.173 2.653.52 3.8.347 1.147.773 2.12 1.28 2.92.507.8 1.213 1.52 2.12 2.16.907.64 1.747 1.16 2.52 1.56.773.4 1.773.773 3 1.12 1.227.347 2.24.6 3.04.76.8.16 1.867.347 3.2.56 1.024.17 1.886.324 2.586.46l.494.1c.773.16 1.653.4 2.64.72.987.32 1.747.667 2.28 1.04.533.373.987.867 1.36 1.48.373.613.56 1.32.56 2.12 0 1.173-.373 2.187-1.12 3.04-.747.853-1.747 1.493-3 1.92-1.253.427-2.68.64-4.28.64-2.72 0-4.92-.6-6.6-1.8-1.68-1.2-2.573-2.893-2.68-5.08h-8.72c.107 4.48 1.76 8.053 4.96 10.72s7.44 4 12.72 4z" transform="translate(-416 -223) translate(-99.792 -.861) translate(516.44 223.861)"/>
                    <path fill="#B9D305" d="M363.12 30.9c-.794 1.058-1.845 1.84-3.133 2.34-1.294.515-2.699.76-4.213.76-1.59-.016-3.211-.212-4.847-.607-1.606-.386-2.952-.885-4.038-1.5l-.165-4.788 2.55-.004.045.266c.306 1.78.987 2.997 2 3.699 1.046.73 2.49 1.088 4.36 1.066.724 0 1.453-.12 2.208-.352.748-.229 1.37-.595 1.876-1.092.491-.482.753-1.114.767-1.927-.029-.957-.463-1.741-1.31-2.36-.877-.643-1.977-1.21-3.277-1.721-1.325-.512-2.648-1.072-3.975-1.686-1.333-.617-2.458-1.402-3.38-2.36-.917-.975-1.394-2.24-1.436-3.784.037-1.421.494-2.6 1.37-3.522.858-.912 1.932-1.584 3.212-2.018 1.265-.427 2.532-.641 3.805-.641 1.243.02 2.483.182 3.718.511 1.19.308 2.36.664 3.487 1.074l.216.079v4.244h-2.257l-.05-.258c-.269-1.256-.866-2.229-1.787-2.93-.946-.74-2.115-1.113-3.52-1.13-1.105-.005-2.1.272-2.995.816-.856.532-1.325 1.357-1.383 2.501.037.773.463 1.454 1.321 2.049.874.606 1.977 1.18 3.283 1.725 1.325.552 2.648 1.142 3.973 1.781 1.33.647 2.454 1.422 3.359 2.324.932.926 1.41 2.07 1.448 3.413-.03 1.616-.434 2.97-1.232 4.032zm-18.504 2.708h-12.557l.01-1.565.32-.015c1.777-.052 2.838-.321 3.28-.76.449-.449.683-1.444.622-3.067V16.19c.049-1.326-.198-2.121-.648-2.467-.455-.348-1.477-.546-3.15-.52l-.327.005v-1.58l.302-.022c2.728-.19 5.433-.49 8.118-.906l.387-.055s-.105 15.257-.105 17.555c-.05 1.63.17 2.618.57 3.075.384.43 1.312.7 2.853.752l.325.015v1.565zm-14.538-17.58h-3.21l-.047-.268c-.109-.556-.304-1.092-.602-1.593-.3-.491-.755-.75-1.407-.768-1.18.062-2.29.473-3.333 1.243-1.029.758-1.946 1.543-2.757 2.344l-.04 12.774c-.023.643.07 1.112.242 1.431.158.29.527.522 1.152.655.605.124 1.547.195 2.829.184h.325l-.004 1.584h-13.07V32.03h.336c1.668.017 2.658-.147 3.057-.442.397-.29.602-.872.54-1.83V15.576c.062-.95-.143-1.532-.54-1.824-.4-.29-1.389-.463-3.057-.452l-.336.004v-1.572l.305-.022c1.323-.113 2.59-.236 3.832-.372 1.216-.135 2.36-.344 3.465-.615l.37-.093.415 4.443c1.111-1.116 2.331-2.097 3.668-2.944 1.463-.918 3.082-1.406 4.864-1.456.378.01.87.087 1.446.236.526.138.983.288 1.364.447l.201.093-.008 4.578zm-20.386 11.724c-1.255 1.797-2.78 3.277-4.574 4.428-1.853 1.179-3.941 1.786-6.28 1.82-2.283-.024-4.209-.532-5.764-1.535-1.539-1.007-2.701-2.358-3.475-4.07-.775-1.707-1.156-3.638-1.156-5.773.01-2.168.516-4.158 1.514-5.952.99-1.797 2.341-3.241 4.071-4.323 1.726-1.088 3.693-1.64 5.906-1.674 2.936.034 5.238.892 6.88 2.59 1.623 1.67 2.462 3.947 2.56 6.792l.009.34h-16.655c-.016 1.78.26 3.442.827 4.979.576 1.585 1.518 2.863 2.812 3.836 1.288.966 2.981 1.476 5.102 1.506 1.315-.036 2.602-.439 3.882-1.205 1.249-.744 2.294-1.612 3.137-2.605l.183-.224 1.206.809-.185.26zM286.748 13.3c-.494.35-.936 1.19-1.312 2.1l-6.485 18.141-4.285.042-6.272-16.621c-.444-1.31-.969-2.296-1.555-2.96-.574-.662-1.438-1.27-2.56-1.354l-.3-.022v-1.571s10.06.016 10.38 0l.342-.018v1.59l-.304.021c-.96.049-1.557.213-1.858.44-.304.224-.444.543-.426.937-.01.186.052.496.192.93.133.379 4.394 11.907 5.591 15.144 1.166-3.193 5.258-14.415 5.388-14.86.15-.506.222-.945.212-1.315.01-.331-.148-.62-.531-.863-.35-.22-.975-.378-1.895-.413l-.306-.014v-1.597l.34.018c.322.016 7.454 0 7.454 0v1.571l-.28.039c-.536.074-1.042.283-1.53.635zm-22.125 14.452c-1.257 1.797-2.783 3.277-4.583 4.428-1.85 1.179-3.942 1.786-6.287 1.82-2.269-.024-4.202-.532-5.758-1.535-1.538-1.007-2.69-2.358-3.478-4.07-.778-1.707-1.156-3.638-1.165-5.773.031-2.168.537-4.158 1.523-5.952.997-1.797 2.347-3.241 4.07-4.323 1.735-1.088 3.704-1.64 5.915-1.674 2.927.034 5.233.892 6.877 2.59 1.617 1.67 2.458 3.947 2.555 6.792l.004.34h-16.65c-.01 1.78.267 3.442.84 4.979.579 1.585 1.507 2.863 2.805 3.836 1.288.966 2.977 1.476 5.11 1.506 1.308-.036 2.598-.439 3.88-1.205 1.236-.744 2.291-1.612 3.13-2.605l.19-.224 1.2.809-.178.26zm34.536-15.207c1.862.057 3.134.661 3.854 1.802.707 1.142 1.112 2.523 1.199 4.173h-11.454c.18-1.549.808-2.907 1.886-4.07 1.107-1.2 2.606-1.836 4.515-1.905zm-45.076 0c1.87.057 3.14.661 3.849 1.802.711 1.142 1.115 2.523 1.2 4.173H247.68c.185-1.549.814-2.907 1.886-4.07 1.115-1.2 2.607-1.836 4.518-1.905zM338.53 0c.847.02 1.565.295 2.115.85.545.551.837 1.243.843 2.062-.006.819-.298 1.516-.843 2.064-.55.557-1.268.834-2.115.858-.85-.024-1.557-.301-2.113-.858-.551-.548-.831-1.245-.854-2.064.023-.82.303-1.51.854-2.063.556-.554 1.263-.829 2.113-.849z" transform="translate(-416 -223) translate(-99.792 -.861) translate(516.44 223.861)"/>
                </g>
            </g>
        </g>
    </g>
</svg>
