<svg xmlns="http://www.w3.org/2000/svg" width="21" height="19" viewBox="0 0 21 19">
    <g fill="none" fill-rule="evenodd">
        <g fill="#FF8AD4" fill-rule="nonzero">
            <g>
                <g>
                    <g>
                        <g>
                            <path d="M21.779 36.614c-.002.075-.014.15-.04.22-.012.033-.03.06-.047.088-.015.028-.025.057-.044.083l-9.696 12.411-.002.004c-.062.079-.136.136-.218.183-.021.012-.04.022-.062.032-.087.038-.18.066-.279.066-.1 0-.192-.028-.279-.066-.022-.01-.04-.02-.062-.032-.082-.047-.156-.104-.213-.18L1.134 37.005c-.026-.034-.04-.072-.059-.11-.009-.019-.02-.034-.028-.054-.028-.073-.042-.15-.044-.228 0-.005-.003-.01-.003-.016 0-.016.008-.03.008-.047.005-.052.012-.104.028-.155.031-.12.082-.23.16-.32l2.664-4.643c.122-.214.336-.432.584-.432h13.91c.248 0 .445.218.568.432l2.658 4.63c.083.095.137.213.169.34.014.048.02.095.024.143.001.018.01.035.01.052 0 .007-.004.011-.004.017z" transform="translate(-247 -3872) translate(-237 3549) translate(459 268) translate(24 16) translate(0 8)"/>
                        </g>
                    </g>
                </g>
            </g>
        </g>
    </g>
</svg>
