<svg xmlns="http://www.w3.org/2000/svg" width="21" height="22" viewBox="0 0 21 22">
    <g fill="none" fill-rule="evenodd">
        <g fill="#FF8AD4" fill-rule="nonzero">
            <g>
                <g>
                    <g>
                        <g>
                            <g>
                                <path d="M10.391 29c5.739 0 10.391 4.652 10.391 10.391s-4.652 10.391-10.39 10.391C4.651 49.782 0 45.13 0 39.392 0 33.651 4.652 29 10.391 29zm0 6.612c-2.087 0-3.779 1.692-3.779 3.78 0 2.086 1.692 3.778 3.78 3.778 2.086 0 3.778-1.692 3.778-3.779 0-2.087-1.692-3.779-3.779-3.779zm0 1.89c1.043 0 1.89.846 1.89 1.89 0 1.042-.847 1.888-1.89 1.888s-1.89-.846-1.89-1.889c0-1.043.847-1.89 1.89-1.89z" transform="translate(-247 -4079) translate(-237 3549) translate(459 268) translate(24 16) translate(0 8) translate(.988 209.821)"/>
                            </g>
                        </g>
                    </g>
                </g>
            </g>
        </g>
    </g>
</svg>
