<svg xmlns="http://www.w3.org/2000/svg" width="21" height="22" viewBox="0 0 21 22">
    <g fill="none" fill-rule="evenodd">
        <g fill="#FF8AD4" fill-rule="nonzero">
            <g>
                <g>
                    <g>
                        <g>
                            <g>
                                <path d="M8.25 33.195l-4.016-.573-.09-.01c-.898-.064-1.578.85-1.251 1.73l1.44 3.876-2.942 2.853-.068.07c-.603.679-.328 1.788.546 2.075l3.862 1.264.347 4.131.011.096c.14.907 1.163 1.38 1.927.86l3.375-2.3 3.375 2.3.08.05c.78.452 1.78-.07 1.858-1.006l.347-4.131 3.862-1.264.091-.034c.83-.344 1.053-1.466.388-2.111l-2.944-2.853 1.442-3.876.029-.088c.26-.88-.46-1.762-1.37-1.632l-4.017.573-2.065-3.568c-.484-.836-1.668-.836-2.152 0L8.25 33.195z" transform="translate(-247 -3939) translate(-237 3549) translate(459 268) translate(24 16) translate(0 8) translate(.248 69.888)"/>
                            </g>
                        </g>
                    </g>
                </g>
            </g>
        </g>
    </g>
</svg>
