<svg xmlns="http://www.w3.org/2000/svg" width="34" height="34" viewBox="0 0 34 34">
    <g fill="none" fill-rule="evenodd">
        <g fill="#000" fill-rule="nonzero">
            <path d="M17.146.007l.06.007c.028.003.056.008.083.013l.029.006c.036.007.07.016.105.026l.05.015.088.03.045.02c.03.012.06.026.09.041l.04.022c.027.014.053.03.079.045l.027.018 15.45 10.041c.084.054.164.117.237.189l.01.01.032.032c.054.056.104.117.15.183l-.087-.113c.018.022.036.044.052.066l.035.047.007.01.028.042c.046.073.086.148.12.225l.018.045c.011.029.021.057.03.086l.018.059c.01.033.018.067.025.1l.006.031c.007.035.012.07.016.104l.006.061c.003.028.004.056.005.083V22.45c-.001.027-.002.055-.005.083l.005-.123c0 .062-.004.123-.011.184-.004.034-.01.07-.016.104l-.006.03c-.007.034-.015.068-.024.1l-.019.06c-.009.029-.019.057-.03.086l-.019.044c-.04.097-.092.19-.154.278l.052-.08c-.014.024-.03.047-.045.07l-.007.01-.035.048-.052.065c-.02.024-.041.047-.063.07l-.033.033-.009.009c-.073.072-.153.135-.238.189L17.842 33.75l-.027.018-.078.045.105-.063c-.047.031-.096.06-.146.085l-.09.042-.046.018c-.028.011-.057.021-.086.03l-.052.016c-.033.01-.068.019-.104.026l-.03.006c-.026.005-.054.01-.082.013-.137.019-.275.019-.412 0-.028-.003-.056-.008-.083-.013l-.029-.006c-.036-.007-.07-.016-.105-.026l-.05-.015-.088-.03-.045-.02c-.03-.012-.06-.026-.09-.041l-.04-.022c-.027-.014-.053-.03-.079-.045l-.027-.018L.708 23.71c-.084-.054-.164-.117-.237-.189l-.01-.01-.032-.032c-.054-.056-.104-.117-.15-.183l.087.113c-.018-.022-.036-.044-.052-.066l-.035-.047-.007-.01c-.016-.023-.03-.046-.045-.07-.04-.064-.073-.13-.102-.197l-.019-.045c-.011-.029-.021-.057-.03-.086l-.018-.059c-.01-.033-.018-.067-.025-.1l-.006-.031c-.007-.035-.012-.07-.016-.104l-.006-.057C.002 22.5 0 22.466 0 22.432V11.568c0-.034.002-.069.005-.104L0 11.591c0-.062.004-.123.011-.184.004-.034.01-.07.016-.104l.006-.03c.007-.034.015-.068.024-.1l.019-.06c.009-.029.019-.057.03-.086l.019-.044c.04-.097.092-.19.154-.278l-.035.052.028-.042.007-.01.035-.048.052-.065c.02-.024.041-.047.063-.07l.033-.033.009-.009c.073-.072.153-.135.238-.189L16.158.25l.027-.018.078-.045-.105.063c.047-.031.096-.06.146-.085l.09-.042.046-.018c.028-.011.057-.021.086-.03l.052-.016c.033-.01.068-.019.104-.026l.03-.006c.026-.005.054-.01.082-.013.117-.016.235-.018.352-.007zm7.581 18.879l-6.182 4.328v6.393l11.147-7.246-4.965-3.475zm-15.455 0l-4.964 3.475 11.146 7.245v-6.392l-6.182-4.328zM17 13.477L11.968 17 17 20.523 22.032 17 17 13.477zM3.09 14.558v4.883L6.578 17 3.09 14.558zm27.819 0L27.421 17l3.488 2.441v-4.883zM15.454 4.393L4.308 11.638l4.964 3.475 6.182-4.328V4.393zm3.091-.001v6.393l6.182 4.328 4.964-3.475-11.146-7.246z"/>
        </g>
    </g>
</svg>
