<svg xmlns="http://www.w3.org/2000/svg" width="34" height="34" viewBox="0 0 34 34">
    <g fill="none" fill-rule="evenodd">
        <g fill="#000" fill-rule="nonzero">
            <path d="M28.937 12.758l4.65 4.666c.31.313.46.752.4 1.19-.058.438-.318.823-.7 1.042l-5.063 2.895c.003.037.021.069.021.107v4.253c0 .507-.271.975-.709 1.228l-9.828 5.672c-.02.011-.046.007-.066.017-.196.1-.408.172-.642.172-.233 0-.443-.07-.638-.17-.02-.01-.044-.005-.065-.016L6.38 28.142c-.432-.247-.703-.704-.715-1.201l-.088-4.253c-.001-.08.03-.15.041-.226L.714 19.656c-.383-.219-.642-.604-.702-1.042-.058-.438.091-.877.402-1.19l4.65-4.666L.414 8.09c-.31-.311-.46-.752-.402-1.188.06-.438.319-.824.702-1.043L10.63.187c.557-.318 1.255-.223 1.707.23L17 5.099l4.664-4.68c.451-.454 1.15-.55 1.705-.23l9.918 5.672c.382.22.642.605.7 1.043.06.436-.09.877-.4 1.188l-4.65 4.667zm1.335 5.356l-3.568-3.58-7.364 4.217 3.565 3.577 7.367-4.214zM18.417 30.128l6.995-4.036V24.16l-2.043 1.167c-.218.127-.461.188-.701.188-.368 0-.732-.144-1.004-.417l-3.247-3.26v8.29zm-1.403-13.312l7.047-4.037-7.074-4.04-7.049 4.037 7.076 4.04zm-8.531 9.263l7.1 4.06v-8.3l-3.246 3.26c-.273.273-.638.417-1.004.417-.24 0-.483-.061-.703-.188l-2.189-1.251.042 2.002zm2.613-3.75l3.573-3.587-7.372-4.21-3.57 3.582 7.369 4.214zm0-19.142L3.728 7.402l3.593 3.605 7.364-4.217-3.59-3.603zm11.809 0L19.306 6.8l7.373 4.21 3.593-3.607-7.367-4.215z"/>
        </g>
    </g>
</svg>
