<svg xmlns="http://www.w3.org/2000/svg" width="34" height="34" viewBox="0 0 34 34">
    <g fill="none" fill-rule="evenodd">
        <g fill="#FFF" fill-rule="nonzero">
            <path d="M23.664 20.884c-.223.209-.415 1.088-.417 1.67v7.029c0 .075-.006.15-.019.225-.237 1.45-1.74 4.192-5.73 4.192-3.987 0-5.492-2.741-5.73-4.19-.012-.076-.018-.15-.018-.227v-7.03c0-.014.007-.024.007-.038 0-.013-.007-.024-.007-.037-.006-.566-.187-1.358-.438-1.61C7.842 18.35 6 15.06 6 11.335 6 5.086 11.158 0 17.499 0 23.84 0 29 5.086 29 11.336c0 3.732-1.85 7.028-5.336 9.548zm-6.165 10.283c2.277 0 2.781-1.367 2.873-1.727v-2.896c-.937.256-1.851.374-2.7.374-1.165 0-2.203-.188-3.047-.416v2.932c.11.414.64 1.733 2.874 1.733zm0-28.334c-4.756 0-8.624 3.814-8.624 8.503 0 3.574 2.319 5.969 4.265 7.347.029.021.043.052.07.075.028.023.06.03.087.054 1.265 1.198 1.328 3.261 1.328 3.662 0 .014-.007.026-.009.04.002.014.009.025.009.04v.984c1.133.416 3.394.942 5.747-.004v-.98-.002c0-.427.07-2.607 1.357-3.766.022-.018.049-.024.072-.04.023-.02.033-.046.058-.063 1.946-1.378 4.266-3.773 4.266-7.347 0-4.689-3.87-8.503-8.626-8.503z"/>
        </g>
    </g>
</svg>
