<svg xmlns="http://www.w3.org/2000/svg" width="34" height="34" viewBox="0 0 34 34">
    <g fill="none" fill-rule="evenodd">
        <g fill="#FFF" fill-rule="nonzero">
            <path d="M32.674 7.736c-.023.023-.053.03-.076.052-.022.023-.029.053-.05.076L30.47 9.941l-.002.002L9.96 30.452l-.003.003-.006.007c-.066.064-.148.096-.221.146-.08.054-.147.122-.24.16l-.008.003-.001.002-7.522 3.12c-.176.073-.36.107-.542.107-.368 0-.73-.143-1.001-.414C.01 33.18-.112 32.57.108 32.04l3.125-7.532c.013-.032.04-.052.054-.082.068-.135.143-.268.252-.377L24.06 3.532s0-.002.002-.003l.002-.003 2.075-2.075c.022-.02.05-.027.07-.046.022-.025.031-.057.055-.081 1.768-1.765 4.644-1.765 6.411 0 1.769 1.769 1.767 4.645 0 6.412zM5.038 27.551l-1 2.412 2.41-1-1.41-1.412zm3.91-.096L27.465 8.94l-2.401-2.404L6.545 25.051l2.404 2.404zM30.672 3.328c-.664-.662-1.74-.664-2.404 0-.022.021-.05.029-.072.049-.022.024-.03.056-.054.079l-1.075 1.076 2.403 2.404 1.075-1.075c.022-.023.052-.03.077-.051.02-.023.027-.053.05-.076.663-.663.663-1.742 0-2.406z"/>
        </g>
    </g>
</svg>
