<svg xmlns="http://www.w3.org/2000/svg" width="34" height="34" viewBox="0 0 34 34">
    <g fill="none" fill-rule="evenodd">
        <g fill="#000" fill-rule="nonzero">
            <path d="M33.004 15.077c-1.086.337-2.213.506-3.35.506-1.041 0-2.046-.188-3.024-.461l-5.104 5.106c1.303 3.098 1.522 6.603.485 9.942-.148.474-.532.836-1.015.955-.11.027-.225.041-.337.041-.372 0-.734-.146-1.002-.414l-7.202-7.2L2.42 33.584c-.278.277-.64.416-1.002.416-.363 0-.725-.14-1.001-.416-.555-.552-.555-1.45 0-2.003l10.036-10.032-7.203-7.202c-.352-.35-.494-.859-.374-1.34.12-.483.48-.868.955-1.014 1.402-.437 2.863-.66 4.336-.66 1.96 0 3.857.389 5.611 1.124l5.073-5.069c-.578-2.054-.585-4.265.076-6.391.148-.474.531-.836 1.014-.956.478-.119.99.023 1.34.374l12.304 12.308c.352.35.493.859.375 1.34-.12.483-.482.867-.955 1.014zm-25.881-.864l12.67 12.666c.304-3.41-.894-6.815-3.374-9.295-2.45-2.45-5.86-3.674-9.296-3.37zm9.242-.336c.728.501 1.42 1.066 2.058 1.704.637.637 1.18 1.34 1.68 2.065l3.723-3.726c-.754-.46-1.475-.983-2.117-1.623-.644-.645-1.182-1.361-1.642-2.118l-3.702 3.698zm4.883-9.487c.009 2.185.87 4.31 2.464 5.902 1.576 1.575 3.668 2.446 5.895 2.46L21.248 4.39z"/>
        </g>
    </g>
</svg>
