<svg xmlns="http://www.w3.org/2000/svg" width="34" height="34" viewBox="0 0 34 34">
    <g fill="none" fill-rule="evenodd">
        <g fill="#FFF" fill-rule="nonzero">
            <path d="M26.803 23.182c-.855 0-1.55-.691-1.55-1.545s.695-1.546 1.55-1.546c1.708 0 3.099-1.387 3.099-3.09 0-1.704-1.39-3.091-3.099-3.091-.855 0-1.55-.692-1.55-1.546 0-.854.695-1.545 1.55-1.545C30.221 10.819 33 13.59 33 17c0 3.409-2.78 6.182-6.197 6.182zM22.79 33.857c-.208.096-.428.143-.648.143-.362 0-.722-.127-1.009-.374l-10.41-8.899H5.098C3.388 24.727 2 23.34 2 21.637v-9.273c0-1.703 1.389-3.09 3.098-3.09h5.625L21.133.372c.462-.394 1.107-.484 1.657-.231.549.252.902.8.902 1.404v30.909c0 .603-.353 1.151-.902 1.402zM20.592 4.905l-8.288 7.086c-.38.327-.87.41-1.328.313H5.1l-.002 9.333h6.197c.078 0 .143.032.216.043.108.014.214.025.318.064.106.038.196.1.29.16.06.04.13.057.185.105l8.288 7.085V4.905z"/>
        </g>
    </g>
</svg>
