<svg xmlns="http://www.w3.org/2000/svg" width="34" height="34" viewBox="0 0 34 34">
    <g fill="none" fill-rule="evenodd">
        <g fill="#FFF" fill-rule="nonzero">
            <path d="M18.411 34c-8.035 0-14.704-6.02-15.51-14.004-.078-.779.49-1.473 1.267-1.552.789-.071 1.473.49 1.553 1.268.658 6.53 6.114 11.455 12.69 11.455 7.034 0 12.756-5.722 12.756-12.756 0-6.573-4.923-12.029-11.451-12.688-.778-.079-1.346-.773-1.268-1.552.08-.778.765-1.34 1.552-1.267 7.982.806 14 7.473 14 15.507C34 27.006 27.007 34 18.411 34zm-1.424-18.43c0 .781-.634 1.416-1.416 1.416H1.557c-.047.005-.094.007-.14.007-.782 0-1.417-.628-1.417-1.41v-.015C.009 6.99 6.993.008 15.57 0H15.584C16.365 0 17 .635 17 1.417c0 .063-.004.126-.013.188V15.57zM14.154 2.912c-5.888.661-10.58 5.352-11.241 11.24h11.24V2.912z"/>
        </g>
    </g>
</svg>
