<svg xmlns="http://www.w3.org/2000/svg" width="34" height="34" viewBox="0 0 34 34">
    <g fill="none" fill-rule="evenodd">
        <g fill="#FFF" fill-rule="nonzero">
            <path d="M33.491 8.881l-4.25 3.542c-.069.055-.148.083-.222.126-.058.032-.11.074-.171.098-.168.065-.339.103-.513.103H18.417v1.417h8.485c.784 0 1.431.647 1.431 1.43v7.056c0 .783-.647 1.43-1.43 1.43h-8.486v8.5c0 .784-.634 1.417-1.417 1.417s-1.417-.633-1.417-1.417v-8.5H5.667h-.002c-.174 0-.345-.038-.513-.103-.062-.024-.113-.065-.171-.098-.074-.042-.153-.07-.222-.126l-4.25-3.542C.187 19.944 0 19.546 0 19.125c0-.42.187-.819.509-1.09l4.25-3.541c.052-.043.116-.058.172-.092.084-.053.163-.105.258-.139.095-.034.19-.045.288-.058.065-.009.123-.038.19-.038h9.916V12.75H7.097c-.783 0-1.43-.647-1.43-1.43V4.263c0-.783.647-1.43 1.43-1.43h8.486V1.416C15.583.633 16.217 0 17 0s1.417.633 1.417 1.417v1.416h9.916c.067 0 .122.029.186.037.1.014.197.026.293.06.094.034.173.086.257.138.056.034.12.05.172.093l4.25 3.541c.322.27.509.669.509 1.09 0 .42-.187.819-.509 1.09zM6.181 17L3.63 19.125l2.55 2.125H25.5V17H6.18zM27.819 5.667H8.5v4.25h19.32l2.55-2.125-2.55-2.125z"/>
        </g>
    </g>
</svg>
