<svg xmlns="http://www.w3.org/2000/svg" width="34" height="34" viewBox="0 0 34 34">
    <g fill="none" fill-rule="evenodd">
        <g fill="#000" fill-rule="nonzero">
            <path d="M27.835 33.252c-.244.46-.718.748-1.235.748H8.4c-.517 0-.992-.288-1.234-.748-.244-.46-.217-1.02.069-1.455l5.365-8.143v-8.07h-1.4c-.775 0-1.4-.634-1.4-1.417 0-.784.625-1.417 1.4-1.417H14c.774 0 1.4.633 1.4 1.417v9.916c0 .28-.082.554-.236.787l-4.148 6.297h12.969l-4.15-6.297c-.153-.233-.236-.508-.236-.787v-9.916c0-.784.627-1.417 1.401-1.417h2.8c.774 0 1.4.633 1.4 1.417 0 .783-.626 1.416-1.4 1.416h-1.4v8.071l5.366 8.143c.284.435.312.995.069 1.455zM22.399 8.5c-2.315 0-4.2-1.907-4.2-4.25S20.085 0 22.4 0C24.716 0 26.6 1.907 26.6 4.25S24.716 8.5 22.4 8.5zm0-5.667c-.772 0-1.399.635-1.399 1.417s.627 1.417 1.4 1.417c.773 0 1.4-.635 1.4-1.417s-.627-1.417-1.4-1.417zm-7 8.5c-1.542 0-2.8-1.27-2.8-2.833 0-1.561 1.258-2.833 2.8-2.833 1.544 0 2.8 1.272 2.8 2.833 0 1.563-1.256 2.833-2.8 2.833z"/>
        </g>
    </g>
</svg>
