<svg xmlns="http://www.w3.org/2000/svg" width="34" height="34" viewBox="0 0 34 34">
    <g fill="none" fill-rule="evenodd">
        <g fill="#000" fill-rule="nonzero">
            <path d="M29.043 27.387c.356 2.093 1.496 3 1.55 3.042.456.348.666.94.516 1.49-.15.551-.61.965-1.18 1.037-.047.006-.357.044-.842.044-1.455 0-4.48-.36-6.765-2.848H20.54c-2.564 0-4.99-.54-7.013-1.56-.698-.351-.977-1.198-.623-1.891.351-.694 1.208-.971 1.904-.619 1.63.821 3.612 1.255 5.735 1.255h2.407c.032 0 .06.016.09.019.1.005.19.03.285.056.086.024.17.045.25.085.076.036.141.09.21.14.08.061.156.119.223.195.02.024.05.035.068.06.8 1.04 1.805 1.617 2.734 1.93-.332-.784-.582-1.75-.669-2.89l-.008-.054c-.002-.03-.01-.056-.012-.087-.004-.068.022-.127.027-.193.008-.1.012-.198.04-.293.027-.09.072-.165.115-.246.042-.078.078-.156.134-.226.064-.08.143-.138.223-.202.05-.04.085-.096.143-.13 1.63-.979 4.365-3.137 4.365-6.609 0-1.702-.937-3.583-2.226-4.476-.642-.444-.802-1.322-.353-1.959.447-.64 1.33-.796 1.97-.352C32.619 13.53 34 16.255 34 18.892c0 3.279-1.806 6.325-4.957 8.495zm-15.585-2.865h-1.78c-2.284 2.486-5.31 2.848-6.766 2.848-.485 0-.794-.038-.842-.044-.578-.073-1.051-.492-1.194-1.052-.142-.561.075-1.152.548-1.488.038-.03 1.177-.936 1.531-3.03C1.805 19.588 0 16.542 0 13.26 0 7.051 6.038 2 13.458 2s13.459 5.051 13.459 11.26c0 6.21-6.038 11.262-13.459 11.262zm0-19.707C7.6 4.815 2.833 8.604 2.833 13.26c0 3.475 2.734 5.632 4.362 6.61.058.034.092.089.143.13.08.064.158.122.221.201.058.072.095.15.136.23.043.08.088.155.114.242.03.097.034.194.042.294.004.065.03.124.027.192-.003.031-.011.056-.013.087l-.008.057c-.087 1.138-.337 2.106-.667 2.891.929-.314 1.933-.892 2.735-1.935.02-.023.048-.035.07-.059.065-.076.143-.134.223-.194.068-.05.134-.103.209-.14.08-.04.167-.06.255-.086.092-.025.181-.049.276-.055.033-.002.06-.018.093-.018h2.41c5.858 0 10.622-3.789 10.622-8.447 0-4.656-4.765-8.445-10.625-8.445z"/>
        </g>
    </g>
</svg>
