<svg xmlns="http://www.w3.org/2000/svg" width="34" height="34" viewBox="0 0 34 34">
    <g fill="none" fill-rule="evenodd">
        <g fill="#FFF" fill-rule="nonzero">
            <path d="M30.38 16.219c-3.295 3.248-6.343 4.738-9.032 6.054-.567.278-1.128.551-1.682.838l.035 4.612c.001.318-.11.629-.316.872l-3.328 3.933c-.256.301-.63.47-1.018.47-.083 0-.167-.007-.251-.025-.473-.09-.86-.429-1.013-.886l-1.855-5.568-4.442-4.443-5.566-1.857c-.46-.152-.8-.544-.89-1.02-.088-.479.09-.966.465-1.274l3.999-3.289c.238-.196.537-.303.846-.303h4.498c.16-.332.316-.658.47-.985 1.494-3.144 2.906-6.115 6.475-9.739C19.48 1.88 22.865 1 27.835 1c2.127 0 3.728.168 3.795.176.624.067 1.118.56 1.183 1.184.114 1.061 1.005 10.47-2.433 13.859zm-.122-12.476c-.624-.039-1.47-.076-2.423-.076-4.051 0-7.025.661-8.16 1.814-3.255 3.304-4.512 5.95-5.967 9.012-.275.578-.553 1.164-.85 1.764-.224.455-.688.743-1.195.743H6.81l-1.768 1.452 3.577 1.195c.196.065.374.174.522.321l4.887 4.888c.146.145.257.324.321.52l1.205 3.617 1.477-1.744-.037-4.926c-.002-.494.264-.946.695-1.182.817-.445 1.645-.85 2.487-1.262 2.628-1.287 5.347-2.616 8.333-5.559 1.724-1.7 1.988-6.98 1.749-10.577zm-6.6 10.59c-2.204 0-3.998-1.794-3.998-4s1.794-4 3.999-4 3.998 1.794 3.998 4-1.793 4-3.998 4zm0-5.333c-.734 0-1.332.597-1.332 1.333 0 .735.598 1.334 1.333 1.334s1.332-.599 1.332-1.334c0-.736-.597-1.333-1.332-1.333zM6.756 23.71c.715-.185 1.439.238 1.626.949.188.712-.237 1.44-.948 1.629-.79.21-2.27.767-2.873 1.37-.275.274-.575 1.375-.753 2.629 1.323-.098 2.494-.335 2.786-.6.527-.528.96-2.086 1.085-2.971.104-.73.775-1.236 1.507-1.132.728.104 1.235.779 1.133 1.508-.074.513-.506 3.144-1.842 4.483C7.184 32.864 3.883 33 2.56 33l-.246-.001c-.362-.006-.706-.158-.953-.42-.249-.266-.378-.619-.36-.982.052-1.024.326-4.476 1.673-5.825 1.308-1.307 3.8-1.99 4.08-2.061z"/>
        </g>
    </g>
</svg>
