<svg xmlns="http://www.w3.org/2000/svg" width="34" height="34" viewBox="0 0 34 34">
    <g fill="none" fill-rule="evenodd">
        <g fill="#FFF" fill-rule="nonzero">
            <path d="M18.187 21.158l7.728 9.3c.838 1.01.123 2.542-1.188 2.542H9.273c-1.31 0-2.026-1.533-1.188-2.542l7.728-9.3c.618-.744 1.756-.744 2.374 0zM17 24.57L12.572 29.9h8.856L17 24.571zM29.364 2C31.924 2 34 4.082 34 6.65v15.5c0 2.568-2.076 4.65-4.636 4.65h-1.546c-.853 0-1.545-.694-1.545-1.55 0-.856.692-1.55 1.545-1.55h1.546c.853 0 1.545-.694 1.545-1.55V6.65c0-.856-.692-1.55-1.545-1.55H4.636c-.853 0-1.545.694-1.545 1.55v15.5c0 .856.692 1.55 1.545 1.55h1.546c.853 0 1.545.694 1.545 1.55 0 .856-.692 1.55-1.545 1.55H4.636C2.076 26.8 0 24.718 0 22.15V6.65C0 4.082 2.076 2 4.636 2z"/>
        </g>
    </g>
</svg>
