<svg xmlns="http://www.w3.org/2000/svg" width="34" height="34" viewBox="0 0 34 34">
    <g fill="none" fill-rule="evenodd">
        <g fill="#000" fill-rule="nonzero">
            <path d="M20.628 0c2.238-.009 4.111 1.671 4.312 3.866l.455 4.893C27.615 10.825 29 13.753 29 17c0 3.262-1.399 6.203-3.637 8.27l-.451 4.862C24.71 32.33 22.837 34.01 20.605 34h-6.219c-2.238.009-4.11-1.671-4.312-3.866l-.453-4.878C7.392 23.189 6 20.254 6 17c0-3.262 1.399-6.203 3.637-8.27l.451-4.862C10.29 1.679 12.15.002 14.381 0h6.247zm-7.93 27.3l.24 2.577c.066.733.69 1.293 1.443 1.29h6.23c.746.003 1.37-.557 1.437-1.291l.239-2.568c-1.458.658-3.079 1.025-4.787 1.025-1.714 0-3.34-.37-4.802-1.032zM17.5 8.5c-2.088 0-4.004.732-5.496 1.949-.04.039-.083.075-.129.108-1.837 1.559-3 3.867-3 6.443 0 4.694 3.862 8.5 8.625 8.5 2.088 0 4.004-.732 5.496-1.949.04-.039.083-.075.129-.108 1.837-1.559 3-3.867 3-6.443 0-4.694-3.862-8.5-8.625-8.5zm0 2.833c.794 0 1.438.635 1.438 1.417v3.663l1.735 1.71c.561.553.561 1.45 0 2.004-.562.553-1.472.553-2.033 0l-2.156-2.125c-.27-.266-.422-.626-.422-1.002v-4.25c0-.782.644-1.417 1.438-1.417zm3.134-8.5h-6.252c-.743.001-1.363.56-1.43 1.291l-.239 2.568c1.458-.658 3.079-1.025 4.787-1.025 1.72 0 3.353.372 4.818 1.04l-.24-2.584c-.068-.733-.692-1.293-1.444-1.29z"/>
        </g>
    </g>
</svg>
