<svg xmlns="http://www.w3.org/2000/svg" width="123" height="60" viewBox="0 0 123 60">
    <g fill="none" fill-rule="evenodd">
        <g fill="#FFF">
            <g>
                <g>
                    <path d="M122.18 6.583C120.724-7.08 104.889 4.686 78.849 5.34c-27.9.702-34.354 26.05-32.16 33.338 5.054 16.753 25.892-10.06 53.173 10.887 19.289 14.816 23.774-29.317 22.318-42.982zm-16.531 1.128c.25-.252.569-.375.954-.386.386.011.709.134.956.386.246.25.377.563.383.933-.006.37-.137.685-.383.935-.247.251-.57.378-.956.388-.385-.01-.703-.137-.954-.388-.25-.25-.38-.566-.386-.935.007-.37.136-.683.386-.933zM73.21 19.88c-.567.815-1.26 1.483-2.07 2.002-.836.533-1.782.807-2.84.824-1.027-.01-1.901-.239-2.601-.694-.698-.454-1.22-1.068-1.573-1.84-.35-.774-.522-1.645-.525-2.613.012-.98.24-1.88.69-2.69.447-.813 1.058-1.467 1.839-1.957.78-.492 1.67-.742 2.67-.756 1.322.015 2.364.403 3.107 1.171.73.756 1.109 1.785 1.153 3.072l.002.155h-7.52c-.007.803.117 1.555.375 2.251.263.717.684 1.293 1.269 1.733.582.438 1.345.67 2.306.683.592-.017 1.179-.199 1.754-.546.563-.335 1.037-.729 1.415-1.178l.089-.102.54.366-.08.12zm9.995-6.536c-.221.158-.421.538-.591.951l-2.93 8.202-1.938.021-2.831-7.519c-.203-.59-.44-1.038-.706-1.338-.258-.299-.65-.575-1.153-.61l-.135-.012v-.71s4.544.008 4.688 0l.156-.008v.718l-.14.011c-.431.024-.703.097-.838.197-.138.1-.202.245-.192.423-.003.084.023.226.088.422.057.172 1.983 5.385 2.524 6.85.525-1.444 2.375-6.52 2.433-6.722.07-.228.1-.428.096-.594.004-.15-.065-.28-.241-.39-.156-.102-.437-.17-.852-.187l-.141-.007v-.72l.157.006c.143.01 3.364 0 3.364 0v.711l-.124.015c-.243.036-.472.13-.694.29zm10.368 6.536c-.567.815-1.256 1.483-2.068 2.002-.835.533-1.781.807-2.836.824-1.033-.01-1.903-.239-2.603-.694-.698-.454-1.221-1.068-1.573-1.84-.348-.774-.522-1.645-.522-2.613.007-.98.236-1.88.684-2.69.449-.813 1.059-1.467 1.842-1.957.78-.492 1.67-.742 2.668-.756 1.326.015 2.364.403 3.107 1.171.732.756 1.112 1.785 1.156 3.072l.004.155H85.91c-.01.803.115 1.555.37 2.251.264.717.688 1.293 1.272 1.733.583.438 1.347.67 2.306.683.593-.017 1.176-.199 1.753-.546.565-.335 1.036-.729 1.419-1.178l.082-.102.544.366-.083.12zm9.212-5.304h-1.45l-.023-.119c-.05-.252-.14-.493-.273-.72-.133-.225-.342-.342-.636-.348-.531.028-1.034.214-1.503.563-.467.343-.883.696-1.248 1.06l-.02 5.776c-.007.291.03.503.11.646.072.133.237.237.522.3.274.054.7.084 1.277.082h.148l-.001.715h-5.905v-.715h.15c.753.006 1.2-.069 1.382-.203.18-.129.27-.392.244-.826v-6.414c.027-.43-.064-.693-.244-.825-.181-.13-.63-.209-1.382-.204l-.15.001v-.71l.138-.012c.597-.05 1.17-.105 1.732-.168.548-.06 1.067-.154 1.562-.277l.17-.043.187 2.01c.502-.504 1.053-.948 1.656-1.33.66-.417 1.395-.637 2.197-.659.176.005.394.04.654.107.239.061.446.13.617.201l.09.042-.001 2.07zm6.567 7.953h-5.672l.003-.71.143-.005c.803-.023 1.284-.146 1.484-.343.202-.205.307-.653.28-1.387v-5.432c.022-.6-.087-.96-.292-1.118-.206-.157-.67-.246-1.423-.232h-.15v-.714l.14-.01c1.232-.085 2.455-.222 3.667-.41l.173-.025s-.045 6.901-.045 7.941c-.023.735.073 1.183.256 1.39.177.194.592.317 1.292.34l.144.005v.71zm4.933-10.375c.564.01 1.122.083 1.68.23.54.14 1.067.302 1.577.487l.098.035v1.92h-1.02l-.023-.116c-.122-.568-.392-1.008-.806-1.328-.43-.332-.957-.502-1.59-.51-.5 0-.95.123-1.354.37-.386.242-.597.613-.625 1.132.018.35.21.656.596.925.396.275.892.535 1.483.781.6.25 1.198.516 1.796.806.6.292 1.108.642 1.517 1.052.42.418.635.935.655 1.542-.013.732-.196 1.342-.558 1.825-.358.478-.832.831-1.415 1.058-.586.232-1.22.342-1.901.34-.72-.005-1.453-.095-2.192-.273-.725-.173-1.337-.4-1.825-.678l-.077-2.165 1.155-.002.022.122c.14.804.446 1.355.902 1.673.47.328 1.126.491 1.97.48.328 0 .66-.054.998-.156.339-.105.618-.27.847-.496.22-.218.34-.505.347-.872-.014-.433-.21-.787-.592-1.067-.396-.289-.89-.548-1.482-.777-.597-.234-1.196-.486-1.794-.764-.603-.279-1.112-.634-1.53-1.068-.412-.44-.627-1.013-.645-1.71.015-.643.22-1.177.617-1.595.388-.41.872-.715 1.453-.912.57-.192 1.145-.29 1.716-.289zm-25.47.85c.84.022 1.414.298 1.739.814.32.516.503 1.14.54 1.885h-5.173c.084-.699.366-1.313.852-1.84.5-.542 1.177-.83 2.042-.86zm-20.368 0c.844.022 1.42.298 1.741.814.323.516.502 1.14.54 1.885h-5.173c.082-.699.368-1.313.853-1.84.503-.542 1.176-.83 2.04-.86zM.592 54.698c.364-.366.895-.537 1.408-.537 1.045 0 1.484.491 1.484 1.478v1.5c0 .2.021.425.051.602H2.97c-.04-.155-.04-.37-.04-.52h-.013c-.235.36-.629.61-1.167.61-.718 0-1.316-.357-1.316-1.035 0-1.157 1.36-1.225 2.234-1.225h.226v-.105c0-.505-.326-.768-.877-.768-.38 0-.774.128-1.052.38l-.373-.38zm1.712 1.365c-.75 0-1.236.201-1.236.673 0 .44.334.603.78.603.683 0 1.031-.483 1.046-1.05v-.226h-.59zM4.567 55.077c0-.32-.03-.596-.03-.827h.56c0 .185.015.381.015.575h.014c.16-.344.599-.664 1.182-.664.93 0 1.345.58 1.345 1.424v2.157h-.591v-2.097c0-.58-.254-.949-.807-.949-.764 0-1.098.547-1.098 1.347v1.7h-.59v-2.666zM10.726 52.458L12.332 52.458 14.611 56.133 14.625 56.133 14.625 52.458 15.806 52.458 15.806 57.741 14.261 57.741 11.923 53.979 11.907 53.979 11.907 57.741 10.726 57.741zM17.878 53.489L16.35 53.489 16.35 52.459 20.587 52.459 20.587 53.489 19.059 53.489 19.059 57.743 17.878 57.743zM22.171 53.489L20.642 53.489 20.642 52.459 24.877 52.459 24.877 53.489 23.352 53.489 23.352 57.743 22.171 57.743zM27.61 52.458h1.77c1.728 0 3.173.724 3.173 2.656 0 1.71-1.416 2.628-3.012 2.628h-1.93v-5.284zm1.182 4.21h.612c1.098 0 1.926-.412 1.926-1.61 0-1.04-.842-1.525-1.842-1.525h-.696v3.135zM35.068 52.458h.976l2.329 5.283h-1.331l-.462-1.117H34.5l-.449 1.117h-1.297l2.314-5.283zm.454 1.538l-.652 1.643h1.309l-.657-1.643zM39.2 53.489L37.672 53.489 37.672 52.459 41.91 52.459 41.91 53.489 40.382 53.489 40.382 57.743 39.2 57.743zM43.48 52.458h.974l2.332 5.283h-1.333l-.46-1.117h-2.082l-.446 1.117h-1.302l2.316-5.283zm.453 1.538l-.65 1.643h1.308l-.658-1.643zM56.217 54.161c1.09 0 1.891.747 1.891 1.835 0 1.091-.802 1.835-1.89 1.835-1.089 0-1.893-.744-1.893-1.835 0-1.088.804-1.835 1.892-1.835m0 3.132c.766 0 1.257-.563 1.257-1.297 0-.73-.49-1.297-1.257-1.297-.764 0-1.254.566-1.254 1.297 0 .734.49 1.297 1.254 1.297M58.971 55.077c0-.32-.027-.596-.027-.827h.56c0 .185.013.381.013.575h.014c.162-.344.599-.664 1.183-.664.764 0 1.007.422 1.12.664.255-.412.582-.664 1.118-.664 1.015 0 1.347.557 1.347 1.463v2.118h-.59v-2.088c0-.487-.174-.958-.862-.958-.498 0-.916.404-.916 1.032v2.014h-.588v-1.98c0-.766-.2-1.066-.682-1.066-.764 0-1.098.547-1.098 1.347v1.7h-.592v-2.666zM65.195 54.25h.587v.51h.016c.325-.376.76-.599 1.272-.599 1.113 0 1.864.774 1.864 1.835 0 1.046-.78 1.835-1.77 1.835-.64 0-1.145-.309-1.366-.708h-.016v2.321h-.587V54.25zm1.846 3.043c.763 0 1.255-.563 1.255-1.297 0-.73-.492-1.297-1.255-1.297-.76 0-1.259.566-1.259 1.297 0 .734.498 1.297 1.26 1.297zM69.706 54.698c.363-.366.891-.537 1.406-.537 1.045 0 1.482.491 1.482 1.478v1.5c0 .2.023.425.053.602h-.565c-.04-.155-.04-.37-.04-.52h-.015c-.237.36-.626.61-1.164.61-.72 0-1.317-.357-1.317-1.035 0-1.157 1.362-1.225 2.23-1.225h.228v-.105c0-.505-.325-.768-.879-.768-.373 0-.768.128-1.05.38l-.369-.38zm1.71 1.365c-.749 0-1.235.201-1.235.673 0 .44.334.603.781.603.68 0 1.03-.483 1.042-1.05v-.226h-.589zM73.581 55.077c0-.32-.032-.596-.032-.827h.56c0 .185.017.381.017.575h.013c.16-.344.601-.664 1.181-.664.931 0 1.347.58 1.347 1.424v2.157h-.59v-2.097c0-.58-.257-.949-.81-.949-.763 0-1.1.547-1.1 1.347v1.7h-.586v-2.666zM79.038 58.541c-.235.59-.471.994-1.182.994-.166 0-.371-.013-.53-.089l.077-.508c.122.046.25.06.416.06.387 0 .53-.232.659-.574l.24-.658-1.466-3.516h.689l1.097 2.738h.013l1.052-2.738h.644l-1.709 4.291zM53.184 53.528c-.316-.423-.82-.639-1.332-.639-1.188 0-2.03 1.03-2.03 2.182 0 1.218.834 2.181 2.03 2.181.647 0 1.166-.259 1.543-.732l.472.392c-.472.631-1.165.92-2.015.92-1.526 0-2.708-1.166-2.708-2.76 0-1.544 1.129-2.76 2.708-2.76.722 0 1.43.243 1.88.823l-.548.393z" transform="translate(-1198 -8008) translate(1 7959) translate(1197 49)"/>
                </g>
            </g>
        </g>
    </g>
</svg>
