<svg xmlns="http://www.w3.org/2000/svg" width="50" height="50" viewBox="0 0 50 50">
    <g fill="none" fill-rule="evenodd">
        <g>
            <g>
                <g>
                    <path fill="#FF7900" d="M0 0H50V50H0z" transform="translate(-1356 -8009) translate(1 7959) translate(1355 50)"/>
                    <path fill="#FFF" fill-rule="nonzero" d="M45.026 36.407h-.718v1.99h-.38v-1.99h-.718V36.1h1.816v.307zm2.993 1.99h-.378v-1.918h-.012l-.752 1.917h-.24l-.751-1.917h-.011v1.917h-.379v-2.289h.585l.685 1.743.674-1.743h.58v2.29zM41.143 45.806c-2.048 0-3.27-1.315-3.27-3.6s1.233-3.629 3.24-3.629 3.195 1.277 3.195 3.536c0 .12-.014.24-.014.352h-4.625c.014 1.315.56 1.979 1.636 1.979.691 0 1.147-.279 1.575-.88l1.34.742c-.59.983-1.65 1.5-3.077 1.5zm1.37-4.517c0-.93-.529-1.476-1.4-1.476-.824 0-1.34.529-1.409 1.476h2.808zM33.51 44.19c1.388-.01 1.504-1.42 1.504-2.343 0-1.085-.528-1.968-1.516-1.968-.656 0-1.389.478-1.389 2.044 0 .859.06 2.276 1.402 2.267zm3.261-5.479v6.576c0 1.162-.088 3.072-3.4 3.093-1.364 0-2.63-.537-2.883-1.73l1.804-.29c.076.34.284.682 1.307.682.949 0 1.408-.454 1.408-1.54v-.808l-.025-.025c-.29.518-.732 1.01-1.794 1.01-1.618 0-2.894-1.123-2.894-3.471 0-2.322 1.315-3.622 2.792-3.623 1.386 0 1.9.628 2.018.96h-.021l.15-.83 1.538-.004zM22.806 38.92l1.513-.209.165.824c.854-.625 1.532-.958 2.386-.958 1.43 0 2.165.76 2.165 2.261v4.836H27.21v-4.517c0-.85-.222-1.233-.88-1.233-.547 0-1.09.252-1.71.771v4.983h-1.814V38.92zM19.577 45.07c-.677.453-1.474.694-2.288.69-1.296 0-2.062-.862-2.062-2.017 0-1.555 1.43-2.379 4.375-2.711v-.386c0-.505-.384-.797-1.091-.797-.66-.019-1.287.277-1.692.797l-1.233-.704c.648-.905 1.635-1.357 2.962-1.356 1.81 0 2.816.784 2.816 2.06v5.035h-1.62l-.167-.61zm-2.561-1.46c0 .466.294.902.824.902.575 0 1.134-.24 1.693-.732v-1.644c-1.707.216-2.517.654-2.517 1.477v-.004zM10.833 38.732h1.737v.817c.478-.57 1.171-.918 1.914-.96.079-.001.158.003.236.013v1.715h-.088c-.796 0-1.665.123-1.937.741v4.62h-1.862v-6.946zM6.143 45.882c-1.808 0-3.437-1.151-3.437-3.665 0-2.515 1.629-3.66 3.437-3.66 1.808 0 3.436 1.153 3.436 3.665s-1.63 3.66-3.436 3.66zm0-5.785c-1.365 0-1.618 1.232-1.618 2.113 0 .88.253 2.121 1.618 2.121 1.364 0 1.618-1.232 1.618-2.121 0-.89-.254-2.113-1.618-2.113z" transform="translate(-1356 -8009) translate(1 7959) translate(1355 50)"/>
                </g>
            </g>
        </g>
    </g>
</svg>
