<svg xmlns="http://www.w3.org/2000/svg" xmlns:xlink="http://www.w3.org/1999/xlink" width="458" height="678" viewBox="0 0 458 678">
    <defs>
        <filter id="e0wlk7gdib" width="110%" height="120%" x="-5%" y="-10%" filterUnits="objectBoundingBox">
            <feGaussianBlur in="SourceAlpha" result="shadowBlurInner1" stdDeviation="3"/>
            <feOffset dy="-2" in="shadowBlurInner1" result="shadowOffsetInner1"/>
            <feComposite in="shadowOffsetInner1" in2="SourceAlpha" k2="-1" k3="1" operator="arithmetic" result="shadowInnerInner1"/>
            <feColorMatrix in="shadowInnerInner1" values="0 0 0 0 0 0 0 0 0 0 0 0 0 0 0 0 0 0 0.2 0"/>
        </filter>
        <filter id="3os0ax2fzc" width="120%" height="112.9%" x="-10%" y="-6%" filterUnits="objectBoundingBox">
            <feOffset dy="3" in="SourceAlpha" result="shadowOffsetOuter1"/>
            <feGaussianBlur in="shadowOffsetOuter1" result="shadowBlurOuter1" stdDeviation="13"/>
            <feColorMatrix in="shadowBlurOuter1" values="0 0 0 0 0 0 0 0 0 0 0 0 0 0 0 0 0 0 0.1 0"/>
        </filter>
        <path id="qtc6dcrqia" d="M243 0c0 22.091-17.909 40-40 40s-40-17.909-40-40z"/>
        <path id="xgh0bsjh4d" d="M404 0c1.105 0 2 .895 2 2v622c0 1.105-.895 2-2 2H2c-1.105 0-2-.895-2-2V2C0 .895.895 0 2 0h161c0 22.091 17.909 40 40 40s40-17.909 40-40h161z"/>
    </defs>
    <g fill="none" fill-rule="evenodd">
        <g>
            <g>
                <g>
                    <g>
                        <g>
                            <g fill-rule="nonzero" transform="translate(-491 -5232) translate(323 5137) translate(159 112) translate(35 6)">
                                <use fill="#B9D305" xlink:href="#qtc6dcrqia"/>
                                <use fill="#000" filter="url(#e0wlk7gdib)" xlink:href="#qtc6dcrqia"/>
                            </g>
                            <g fill-rule="nonzero" transform="translate(-491 -5232) translate(323 5137) translate(159 112) translate(35 6)">
                                <use fill="#000" filter="url(#3os0ax2fzc)" xlink:href="#xgh0bsjh4d"/>
                                <use fill="#FFF" xlink:href="#xgh0bsjh4d"/>
                            </g>
                            <g>
                                <path fill="#000" fill-rule="nonzero" d="M0 0h406v96c0 1.105-.895 2-2 2H2c-1.105 0-2-.895-2-2V0z" transform="translate(-491 -5232) translate(323 5137) translate(159 112) translate(35 6) translate(0 528)"/>
                                <g>
                                    <path fill="#FF7900" d="M0 0H50V50H0z" transform="translate(-491 -5232) translate(323 5137) translate(159 112) translate(35 6) translate(0 528) translate(24 24)"/>
                                    <path fill="#FFF" fill-rule="nonzero" d="M45.026 36.407h-.718v1.99h-.38v-1.99h-.718V36.1h1.816v.307zm2.993 1.99h-.378v-1.918h-.012l-.752 1.917h-.24l-.751-1.917h-.011v1.917h-.379v-2.289h.585l.685 1.743.674-1.743h.58v2.29zM41.143 45.806c-2.048 0-3.27-1.315-3.27-3.6s1.233-3.629 3.24-3.629 3.195 1.277 3.195 3.536c0 .12-.014.24-.014.352h-4.625c.014 1.315.56 1.979 1.636 1.979.691 0 1.147-.279 1.575-.88l1.34.742c-.59.983-1.65 1.5-3.077 1.5zm1.37-4.517c0-.93-.529-1.476-1.4-1.476-.824 0-1.34.529-1.409 1.476h2.808zM33.51 44.19c1.388-.01 1.504-1.42 1.504-2.343 0-1.085-.528-1.968-1.516-1.968-.656 0-1.389.478-1.389 2.044 0 .859.06 2.276 1.402 2.267zm3.261-5.479v6.576c0 1.162-.088 3.072-3.4 3.093-1.364 0-2.63-.537-2.883-1.73l1.804-.29c.076.34.284.682 1.307.682.949 0 1.408-.454 1.408-1.54v-.808l-.025-.025c-.29.518-.732 1.01-1.794 1.01-1.618 0-2.894-1.123-2.894-3.471 0-2.322 1.315-3.622 2.792-3.623 1.386 0 1.9.628 2.018.96h-.021l.15-.83 1.538-.004zM22.806 38.92l1.513-.209.165.824c.854-.625 1.532-.958 2.386-.958 1.43 0 2.165.76 2.165 2.261v4.836H27.21v-4.517c0-.85-.222-1.233-.88-1.233-.547 0-1.09.252-1.71.771v4.983h-1.814V38.92zM19.577 45.07c-.677.453-1.474.694-2.288.69-1.296 0-2.062-.862-2.062-2.017 0-1.555 1.43-2.379 4.375-2.711v-.386c0-.505-.384-.797-1.091-.797-.66-.019-1.287.277-1.692.797l-1.233-.704c.648-.905 1.635-1.357 2.962-1.356 1.81 0 2.816.784 2.816 2.06v5.035h-1.62l-.167-.61zm-2.561-1.46c0 .466.294.902.824.902.575 0 1.134-.24 1.693-.732v-1.644c-1.707.216-2.517.654-2.517 1.477v-.004zM10.833 38.732h1.737v.817c.478-.57 1.171-.918 1.914-.96.079-.001.158.003.236.013v1.715h-.088c-.796 0-1.665.123-1.937.741v4.62h-1.862v-6.946zM6.143 45.882c-1.808 0-3.437-1.151-3.437-3.665 0-2.515 1.629-3.66 3.437-3.66 1.808 0 3.436 1.153 3.436 3.665s-1.63 3.66-3.436 3.66zm0-5.785c-1.365 0-1.618 1.232-1.618 2.113 0 .88.253 2.121 1.618 2.121 1.364 0 1.618-1.232 1.618-2.121 0-.89-.254-2.113-1.618-2.113z" transform="translate(-491 -5232) translate(323 5137) translate(159 112) translate(35 6) translate(0 528) translate(24 24)"/>
                                </g>
                                <text fill="#FF7900" font-family="HelveticaNeue-Bold, Helvetica Neue" font-size="22" font-weight="bold" transform="translate(-491 -5232) translate(323 5137) translate(159 112) translate(35 6) translate(0 528)">
                                    <tspan x="82.5" y="51">Versión </tspan> <tspan x="82.5" y="73">exclusiva</tspan>
                                </text>
                            </g>
                            <g>
                                <text fill="#B9D305" font-family="Mont-Bold" font-size="60" font-weight="bold" letter-spacing="1.5" transform="translate(-491 -5232) translate(323 5137) translate(159 112) translate(35 6) translate(24 72)">
                                    <tspan x="0" y="207">services </tspan> <tspan x="0" y="259">cards</tspan>
                                </text>
                                <path fill="#B9D305" d="M119.768 149.9c-.794 1.058-1.846 1.84-3.133 2.34-1.294.515-2.7.76-4.213.76-1.59-.016-3.212-.212-4.847-.607-1.607-.386-2.952-.885-4.038-1.5l-.165-4.788 2.549-.004.045.266c.307 1.78.988 2.997 2 3.699 1.047.73 2.491 1.088 4.361 1.066.724 0 1.452-.12 2.207-.352.75-.229 1.37-.595 1.876-1.092.492-.482.753-1.114.768-1.927-.029-.957-.463-1.741-1.31-2.36-.877-.643-1.978-1.21-3.278-1.721-1.324-.512-2.647-1.072-3.974-1.686-1.333-.617-2.458-1.402-3.38-2.36-.917-.975-1.395-2.24-1.436-3.784.037-1.421.494-2.6 1.37-3.522.858-.912 1.932-1.584 3.211-2.018 1.266-.427 2.533-.641 3.806-.641 1.243.02 2.483.182 3.717.511 1.192.308 2.36.664 3.487 1.074l.216.079v4.244h-2.256l-.05-.258c-.27-1.256-.866-2.229-1.787-2.93-.947-.74-2.115-1.113-3.52-1.13-1.105-.005-2.1.272-2.995.816-.856.532-1.325 1.357-1.383 2.501.037.773.463 1.454 1.32 2.049.875.606 1.978 1.18 3.284 1.725 1.325.552 2.648 1.142 3.972 1.781 1.331.647 2.455 1.422 3.36 2.324.932.926 1.409 2.07 1.448 3.413-.03 1.616-.434 2.97-1.232 4.032zm-18.504 2.708H88.707l.01-1.565.319-.015c1.777-.052 2.839-.321 3.281-.76.449-.449.683-1.444.621-3.067v-12.01c.05-1.326-.197-2.121-.648-2.467-.454-.348-1.477-.546-3.15-.52l-.326.005v-1.58l.302-.022c2.728-.19 5.433-.49 8.118-.906l.386-.055s-.105 15.257-.105 17.555c-.049 1.63.171 2.618.57 3.075.385.43 1.313.7 2.854.752l.325.015v1.565zm-14.538-17.58h-3.21l-.047-.268c-.109-.556-.304-1.092-.603-1.593-.3-.491-.755-.75-1.407-.768-1.178.062-2.29.473-3.332 1.243-1.029.758-1.946 1.543-2.757 2.344l-.041 12.774c-.023.643.07 1.112.243 1.431.158.29.526.522 1.152.655.605.124 1.547.195 2.828.184h.325l-.004 1.584H66.804v-1.584h.335c1.669.017 2.658-.147 3.057-.442.397-.29.603-.872.541-1.83v-14.182c.062-.95-.144-1.532-.54-1.824-.4-.29-1.39-.463-3.058-.452l-.335.004v-1.572l.305-.022c1.322-.113 2.59-.236 3.832-.372 1.216-.135 2.36-.344 3.464-.615l.37-.093.416 4.443c1.111-1.116 2.331-2.097 3.668-2.944 1.463-.918 3.082-1.406 4.863-1.456.379.01.87.087 1.446.236.527.138.984.288 1.364.447l.202.093-.008 4.578zm-20.387 11.724c-1.255 1.797-2.779 3.277-4.573 4.428-1.853 1.179-3.941 1.786-6.28 1.82-2.284-.024-4.21-.532-5.764-1.535-1.54-1.007-2.702-2.358-3.475-4.07-.776-1.707-1.156-3.638-1.156-5.773.01-2.168.516-4.158 1.514-5.952.99-1.797 2.341-3.241 4.071-4.323 1.726-1.088 3.693-1.64 5.906-1.674 2.936.034 5.238.892 6.88 2.59 1.622 1.67 2.462 3.947 2.56 6.792l.009.34H49.376c-.017 1.78.26 3.442.827 4.979.576 1.585 1.518 2.863 2.812 3.836 1.288.966 2.98 1.476 5.102 1.506 1.314-.036 2.602-.439 3.882-1.205 1.248-.744 2.293-1.612 3.137-2.605l.183-.224 1.205.809-.185.26zM43.396 132.3c-.494.35-.936 1.19-1.313 2.1L35.6 152.541l-4.285.042-6.272-16.621c-.445-1.31-.97-2.296-1.555-2.96-.574-.662-1.438-1.27-2.56-1.354l-.3-.022v-1.571s10.06.016 10.38 0l.342-.018v1.59l-.304.021c-.961.049-1.558.213-1.858.44-.304.224-.444.543-.426.937-.01.186.052.496.191.93.134.379 4.395 11.907 5.592 15.144 1.166-3.193 5.258-14.415 5.388-14.86.15-.506.222-.945.211-1.315.01-.331-.148-.62-.53-.863-.35-.22-.975-.378-1.895-.413l-.307-.014v-1.597l.34.018c.323.016 7.455 0 7.455 0v1.571l-.28.039c-.537.074-1.043.283-1.53.635zM21.27 146.752c-1.257 1.797-2.783 3.277-4.583 4.428-1.85 1.179-3.942 1.786-6.287 1.82-2.27-.024-4.203-.532-5.758-1.535-1.539-1.007-2.69-2.358-3.479-4.07-.777-1.707-1.156-3.638-1.164-5.773.03-2.168.537-4.158 1.522-5.952.998-1.797 2.348-3.241 4.071-4.323 1.735-1.088 3.703-1.64 5.915-1.674 2.927.034 5.233.892 6.877 2.59 1.617 1.67 2.458 3.947 2.555 6.792l.004.34H4.294c-.011 1.78.267 3.442.84 4.979.579 1.585 1.507 2.863 2.805 3.836 1.287.966 2.976 1.476 5.11 1.506 1.308-.036 2.598-.439 3.88-1.205 1.236-.744 2.291-1.612 3.13-2.605l.19-.224 1.199.809-.177.26zm34.536-15.207c1.862.057 3.133.661 3.853 1.802.708 1.142 1.113 2.523 1.2 4.173H49.405c.181-1.549.809-2.907 1.887-4.07 1.106-1.2 2.606-1.836 4.515-1.905zm-45.077 0c1.87.057 3.142.661 3.85 1.802.711 1.142 1.114 2.523 1.2 4.173H4.327c.186-1.549.815-2.907 1.887-4.07 1.115-1.2 2.606-1.836 4.517-1.905zM95.18 119c.847.02 1.565.295 2.114.85.545.551.838 1.243.844 2.062-.006.819-.299 1.516-.844 2.064-.549.557-1.267.834-2.114.858-.85-.024-1.558-.301-2.113-.858-.551-.548-.831-1.245-.854-2.064.023-.82.303-1.51.854-2.063.555-.554 1.263-.829 2.113-.849z" transform="translate(-491 -5232) translate(323 5137) translate(159 112) translate(35 6) translate(24 72)"/>
                                <g fill-rule="nonzero">
                                    <g transform="translate(-491 -5232) translate(323 5137) translate(159 112) translate(35 6) translate(24 72)">
                                        <circle cx="50" cy="50" r="50" fill="#F7FAE5"/>
                                        <path fill="#98AD06" stroke="#98AD06" stroke-width="3.84" d="M69.83 33.318l10.278 11.415c2.838 3.152 2.583 8.008-.569 10.846L58.137 74.85c-3.153 2.838-8.009 2.584-10.847-.568L37.012 62.867c-2.838-3.152-2.583-8.008.569-10.846L58.983 32.75c3.153-2.838 8.009-2.584 10.847.568z"/>
                                        <path fill="#ACC407" stroke="#ACC407" stroke-width="3.84" d="M50.925 24.745l14.032 6.248c3.875 1.725 5.617 6.265 3.892 10.14l-11.714 26.31c-1.725 3.874-6.265 5.617-10.14 3.892l-14.032-6.248c-3.875-1.725-5.617-6.265-3.892-10.14l11.714-26.31c1.725-3.874 6.265-5.617 10.14-3.892z"/>
                                        <rect width="30.72" height="44.16" x="24" y="25.96" fill="#B9D305" stroke="#B9D305" stroke-width="3.84" rx="7.68"/>
                                    </g>
                                </g>
                            </g>
                        </g>
                    </g>
                </g>
            </g>
        </g>
    </g>
</svg>
