<svg xmlns="http://www.w3.org/2000/svg" width="15" height="22" viewBox="0 0 15 22">
    <g fill="none" fill-rule="evenodd">
        <g fill="#4BB4E6" fill-rule="nonzero">
            <g>
                <g>
                    <g>
                        <g>
                            <g>
                                <path d="M14.104 41.168c-.134.127-.25.665-.251 1.02v4.296c0 .046-.003.092-.011.138-.143.886-1.049 2.562-3.452 2.562-2.402 0-3.308-1.675-3.451-2.561-.008-.046-.012-.092-.012-.139v-4.296c0-.009.005-.015.005-.024 0-.007-.005-.014-.005-.022-.003-.347-.112-.83-.264-.985-2.09-1.538-3.2-3.55-3.2-5.826 0-3.82 3.108-6.929 6.927-6.929 3.82 0 6.928 3.109 6.928 6.93 0 2.28-1.114 4.295-3.214 5.836z" transform="translate(-607 -4009) translate(-237 3549) translate(817 268) translate(24 16) translate(0 8) translate(0 139.93)"/>
                            </g>
                        </g>
                    </g>
                </g>
            </g>
        </g>
    </g>
</svg>
