<svg xmlns="http://www.w3.org/2000/svg" width="21" height="22" viewBox="0 0 21 22">
    <g fill="none" fill-rule="evenodd">
        <g fill="#4BB4E6" fill-rule="nonzero">
            <g>
                <g>
                    <g>
                        <g>
                            <g>
                                <path d="M20.782 38.272c.004 1.534-.355 3.048-1.045 4.414-1.67 3.343-5.087 5.456-8.823 5.457-1.387.004-2.757-.288-4.02-.856L1.37 49.13c-.812.27-1.585-.502-1.314-1.314l1.842-5.525c-.567-1.262-.86-2.632-.856-4.018.001-3.737 2.114-7.154 5.454-8.823 1.37-.692 2.884-1.05 4.416-1.047l.577.002c5.013.276 9.016 4.28 9.294 9.35v.518z" transform="translate(-604 -4079) translate(-237 3549) translate(817 268) translate(24 16) translate(0 8) translate(0 209.9)"/>
                            </g>
                        </g>
                    </g>
                </g>
            </g>
        </g>
    </g>
</svg>
