<svg xmlns="http://www.w3.org/2000/svg" width="22" height="22" viewBox="0 0 22 22">
    <g fill="none" fill-rule="evenodd">
        <g fill="#4BB4E6" fill-rule="nonzero">
            <g>
                <g>
                    <g>
                        <g>
                            <g>
                                <path d="M7.51 32.597l-4.016-.573-.09-.01c-.898-.063-1.578.851-1.252 1.73l1.441 3.876L.65 40.473l-.067.07c-.603.679-.328 1.789.546 2.075l3.862 1.264.347 4.132.01.095c.142.907 1.164 1.38 1.928.86l3.375-2.3 3.375 2.3.08.05c.78.453 1.78-.07 1.858-1.005l.347-4.132 3.862-1.264.091-.034c.83-.343 1.053-1.466.387-2.111l-2.943-2.853 1.442-3.876.029-.088c.26-.88-.46-1.762-1.371-1.632l-4.016.573-2.065-3.567c-.484-.837-1.668-.837-2.152 0L7.51 32.597z" transform="translate(-604 -3939) translate(-237 3549) translate(817 268) translate(24 16) translate(0 8) translate(.001 69.966)"/>
                            </g>
                        </g>
                    </g>
                </g>
            </g>
        </g>
    </g>
</svg>
