<svg xmlns="http://www.w3.org/2000/svg" width="406" height="626" viewBox="0 0 406 626">
    <g fill="none" fill-rule="evenodd">
        <g fill-rule="nonzero">
            <g>
                <rect width="406" height="626" fill="#FFF" rx="10"/>
                <path fill="#4BB4E6" d="M10 0h386c5.523 0 10 4.477 10 10v70H0V10C0 4.477 4.477 0 10 0z"/>
                <g fill="#FFF">
                    <path d="M18.352 13.272l-8.88-3.53-.153-.056c-2.695-.923-5.077 2.147-3.427 4.545l5.416 7.872-8.295 4.743-.15.091C.474 28.473 1.39 32.238 4.29 32.443l9.532.673-1.464 9.444-.022.164c-.297 2.83 3.224 4.468 5.194 2.326L24 38.017l6.47 7.033.115.12c2.028 1.997 5.503.265 5.057-2.61l-1.465-9.444 9.533-.673.175-.017c2.817-.348 3.625-4.138 1.102-5.58l-8.296-4.743 5.417-7.872.09-.137c1.498-2.421-.965-5.427-3.67-4.352l-8.881 3.53-2.777-9.144c-.861-2.837-4.879-2.837-5.74 0l-2.778 9.144z" transform="translate(24 16)"/>
                </g>
            </g>
        </g>
    </g>
</svg>
