<svg xmlns="http://www.w3.org/2000/svg" width="998" height="249" viewBox="0 0 998 249">
    <g fill="none" fill-rule="evenodd">
        <g fill-rule="nonzero">
            <g>
                <g>
                    <path fill="#C7C2C2" d="M1.5 112.061L146.43 0.5 774.041 0.5 996.5 112.061 996.5 247.5 1.5 247.5z" transform="translate(-221 -2099) translate(121 1444) translate(100.5 655.5)"/>
                    <path fill="#EEE" d="M0.5 112.5L996.5 112.5 996.5 247.5 0.5 247.5z" transform="translate(-221 -2099) translate(121 1444) translate(100.5 655.5)"/>
                    <path fill="#B9B4B4" d="M607.5 18.5L756.112 18.5 883.5 89.5 734.888 89.5z" transform="translate(-221 -2099) translate(121 1444) translate(100.5 655.5)"/>
                    <g transform="translate(-221 -2099) translate(121 1444) translate(100.5 655.5) translate(465.5 18.5)">
                        <path fill="#B9B4B4" d="M0 0L100.892 0 217 76 50.73 76z"/>
                        <ellipse cx="74.707" cy="25.333" fill="#ACACAC" rx="33.307" ry="13.173"/>
                    </g>
                    <path fill="#B9B4B4" d="M172.716 18.5L438.158 18.795 474.5 94.5 88.5 94.5z" transform="translate(-221 -2099) translate(121 1444) translate(100.5 655.5)"/>
                </g>
            </g>
        </g>
    </g>
</svg>
