<svg xmlns="http://www.w3.org/2000/svg" width="34" height="34" viewBox="0 0 34 34">
    <g fill="none" fill-rule="evenodd">
        <g fill="#FFF" fill-rule="nonzero">
            <g>
                <g>
                    <path d="M32.583 2.833c.783 0 1.417.635 1.417 1.417v7.083c0 .783-.634 1.417-1.417 1.417h-1.417v17c0 .736-.561 1.342-1.28 1.41l-.136.007H4.25c-.782 0-1.417-.635-1.417-1.417v-17H1.417C.634 12.75 0 12.116 0 11.333V4.25c0-.782.634-1.417 1.417-1.417h31.166zm-4.25 9.916H5.666v15.584h22.667V12.75zm-8.5 2.834c.783 0 1.417.635 1.417 1.417s-.634 1.417-1.417 1.417h-5.666c-.783 0-1.417-.635-1.417-1.417s.634-1.417 1.417-1.417zm11.334-9.916H2.833v4.25h28.334v-4.25z" transform="translate(-185 -96) translate(145 56) translate(40 40)"/>
                </g>
            </g>
        </g>
    </g>
</svg>
