<svg xmlns="http://www.w3.org/2000/svg" width="406" height="626" viewBox="0 0 406 626">
    <g fill="none" fill-rule="evenodd">
        <g fill-rule="nonzero">
            <g transform="translate(-478 -1332) translate(478 1332)">
                <rect width="406" height="626" fill="#FFF" rx="10"/>
                <g fill="#50BE87">
                    <path d="M44 42.996c-.002-2.143-1.145-4.12-3-5.192L26.992 22.8c-1.848-1.067-4.136-1.067-5.992.004L7.008 37.8C5.145 38.875 4.002 40.853 4 42.994v1.924L44 45v-2.003zM4 5.004c.002 2.143 1.145 4.12 3 5.192L21.008 25.2c1.848 1.067 4.136 1.067 5.992-.004L40.992 10.2C42.855 9.125 43.998 7.147 44 5.006V3.082L4 3v2.003z" transform="translate(334 24)"/>
                </g>
            </g>
        </g>
    </g>
</svg>
